<?xml version="1.0" encoding="utf-8"?>
<!-- Generator: Adobe Illustrator 16.0.0, SVG Export Plug-In . SVG Version: 6.00 Build 0)  -->
<!DOCTYPE svg PUBLIC "-//W3C//DTD SVG 1.1//EN" "http://www.w3.org/Graphics/SVG/1.1/DTD/svg11.dtd">
<svg version="1.1" id="Layer_1" xmlns="http://www.w3.org/2000/svg" xmlns:xlink="http://www.w3.org/1999/xlink" x="0px" y="0px"
	 width="1024px" height="1024px" viewBox="0 0 1024 1024" enable-background="new 0 0 1024 1024" xml:space="preserve">
<path id="path3524" inkscape:connector-curvature="0" d="M972.408,268.752c0.821,14.355-0.206,26.045-3.075,35.069L784.76,911.068
	c-3.284,10.664-10.46,19.175-21.533,25.533c-11.076,6.356-22.561,9.536-34.458,9.536H160.9c-49.219,0-78.751-14.356-88.595-43.066
	c-4.102-11.077-3.897-19.895,0.615-26.458c4.512-6.151,12.305-9.229,23.379-9.229h534.649c38.145,0,64.497-7.074,79.058-21.226
	c14.562-14.149,29.225-45.629,43.991-94.439l168.576-557.413c9.024-30.353,5.331-57.013-11.074-79.982s-39.785-34.454-70.14-34.454
	H373.16c-5.333,0-15.792,1.847-31.378,5.538l0.615-1.845c-11.484-2.462-21.226-3.589-29.224-3.385
	c-7.998,0.206-15.381,2.563-22.149,7.076s-12.203,9.331-16.304,14.458c-4.103,5.127-8.101,11.69-11.997,19.688
	c-3.897,7.999-7.178,15.382-9.844,22.149c-2.667,6.767-5.743,13.945-9.229,21.533c-3.487,7.588-6.871,13.843-10.152,18.765
	c-2.461,3.281-5.948,7.588-10.459,12.92c-4.512,5.332-8.204,10.049-11.074,14.15c-2.872,4.101-4.717,7.793-5.537,11.074
	c-0.821,3.692-0.411,9.126,1.23,16.304c1.64,7.178,2.256,12.407,1.846,15.689c-1.641,15.586-7.281,35.376-16.919,59.371
	c-9.639,23.994-18.355,41.324-26.148,51.989c-1.641,2.05-6.152,6.665-13.535,13.843c-7.383,7.177-11.895,13.432-13.536,18.765
	c-1.641,2.05-1.743,7.792-0.308,17.227s1.948,15.997,1.539,19.688c-1.641,13.946-6.768,32.403-15.381,55.374
	c-8.614,22.968-17.227,41.836-25.84,56.602c-1.23,2.462-4.717,7.178-10.459,14.151c-5.743,6.973-9.229,12.715-10.458,17.228
	c-0.821,3.28-0.718,9.021,0.307,17.226c1.025,8.202,0.922,14.355-0.307,18.457C75.176,629.49,69.023,648.255,60,670.2
	c-9.023,21.943-18.252,40.708-27.686,56.294c-2.461,4.102-5.845,8.922-10.152,14.459c-4.307,5.536-7.69,10.356-10.151,14.458
	c-2.461,4.101-4.102,8.408-4.922,12.92c-0.411,2.461,0.205,6.46,1.846,11.999c1.64,5.535,2.255,9.944,1.846,13.226
	c-0.411,5.742-1.231,13.331-2.462,22.765c-1.23,9.434-1.846,14.971-1.846,16.612c-9.024,24.609-8.613,50.655,1.231,78.136
	c11.484,31.992,31.89,58.961,61.217,80.904c29.327,21.943,59.78,32.916,91.364,32.916h567.871c26.661,0,51.783-8.922,75.368-26.764
	c23.586-17.842,39.275-39.889,47.065-66.139l169.192-557.411c9.023-29.533,5.332-55.988-11.073-79.368
	C1000.095,283.722,987.994,274.905,972.408,268.752z M367.007,257.063c1.64-5.332,5.024-9.947,10.151-13.843
	c5.127-3.896,10.357-5.845,15.689-5.845h374.069c5.744,0,9.843,1.948,12.305,5.845s2.87,8.511,1.229,13.843l-12.92,39.376
	c-1.639,5.332-5.021,9.945-10.151,13.843c-5.128,3.896-10.357,5.845-15.689,5.845H367.623c-5.743,0-9.844-1.949-12.306-5.845
	c-2.46-3.897-2.871-8.511-1.23-13.843L367.007,257.063z M315.942,414.565c1.64-5.333,5.024-9.947,10.151-13.843
	c5.127-3.896,10.356-5.845,15.688-5.845h374.066c5.744,0,9.845,1.948,12.307,5.845c2.462,3.896,2.87,8.51,1.231,13.843
	l-12.92,39.375c-1.64,5.332-5.025,9.946-10.151,13.843c-5.13,3.896-10.357,5.846-15.689,5.846H316.557
	c-5.742,0-9.844-1.95-12.305-5.846c-2.46-3.896-2.87-8.511-1.23-13.843L315.942,414.565z"/>
</svg>
