<?xml version="1.0" encoding="utf-8"?>
<!-- Generator: Adobe Illustrator 16.0.0, SVG Export Plug-In . SVG Version: 6.00 Build 0)  -->
<!DOCTYPE svg PUBLIC "-//W3C//DTD SVG 1.1//EN" "http://www.w3.org/Graphics/SVG/1.1/DTD/svg11.dtd">
<svg version="1.1" id="Layer_1" xmlns="http://www.w3.org/2000/svg" xmlns:xlink="http://www.w3.org/1999/xlink" x="0px" y="0px"
	 width="1024px" height="1024px" viewBox="0 0 1024 1024" enable-background="new 0 0 1024 1024" xml:space="preserve">
<path fill-rule="evenodd" clip-rule="evenodd" fill="#6B5254" d="M896,64v640c0,0,0,128-128,128H256c0,0-128,0-128-128V64
	c0,0,0-128,128-128h64v-128l96,96l96-96v128h256C768-64,896-64,896,64z M832,192H320v576h448c64,0,64-64,64-64V192z M832,64
	c0,0,0-64-64-64H512v64H320V0h-64c0,0-64,0-64,64v64h640V64z M768,704H384v-64h384V704z M576,576H384V384h192V576z M768,320H384v-64
	h384V320z M640,384h128v64H640V384z M640,512h128v64H640V512z"/>
</svg>
