<?xml version="1.0" encoding="utf-8"?>
<!-- Generator: Adobe Illustrator 16.0.0, SVG Export Plug-In . SVG Version: 6.00 Build 0)  -->
<!DOCTYPE svg PUBLIC "-//W3C//DTD SVG 1.1//EN" "http://www.w3.org/Graphics/SVG/1.1/DTD/svg11.dtd">
<svg version="1.1" id="Layer_1" xmlns="http://www.w3.org/2000/svg" xmlns:xlink="http://www.w3.org/1999/xlink" x="0px" y="0px"
	 width="1024px" height="1024px" viewBox="0 0 1024 1024" enable-background="new 0 0 1024 1024" xml:space="preserve">
<path d="M437.866,374.35c-26.666,26.689-58.844,40.033-96.533,40.033c-37.69,0-69.867-13.346-96.534-40.033
	c-26.667-26.689-40-58.895-40-96.616c0-37.724,13.333-69.928,40-96.618c26.667-26.688,58.844-40.033,96.534-40.033
	c37.688,0,69.867,13.345,96.533,40.033c26.667,26.692,40,58.896,40,96.618C477.867,315.454,464.533,347.659,437.866,374.35z
	 M867.467,599.341c-13.334,13.346-29.423,20.019-48.268,20.018c-18.844-0.001-34.934-6.674-48.266-20.018
	c-13.334-13.345-20.001-29.447-20.001-48.309c0-18.506,6.755-34.519,20.267-48.04c13.512-13.522,29.512-20.282,48-20.284
	c18.489,0,34.489,6.76,48.001,20.284c13.511,13.522,20.267,29.536,20.267,48.04C887.467,569.891,880.802,585.995,867.467,599.341z
	 M867.467,52.742c-13.334,13.345-29.423,20.018-48.268,20.017c-18.844-0.001-34.934-6.673-48.266-20.017
	C757.6,39.397,750.933,23.296,750.933,4.434c0-18.506,6.755-34.521,20.267-48.042c13.512-13.521,29.512-20.282,48-20.282
	c18.489,0,34.489,6.76,48.001,20.282c13.511,13.524,20.267,29.538,20.267,48.042C887.467,23.294,880.802,39.395,867.467,52.742z
	 M682.669,229.157c0-3.914-1.245-7.384-3.734-10.408s-5.511-4.893-9.065-5.604l-81.067-12.277
	c-3.911-12.099-9.956-26.688-18.134-43.771c5.334-7.828,13.333-18.503,24-32.027c10.666-13.522,18.134-23.13,22.399-28.822
	c2.489-3.56,3.733-6.94,3.733-10.144c0-9.609-25.601-38.077-76.801-85.406c-3.556-2.847-7.288-4.27-11.199-4.27
	c-4.268,0-7.824,1.245-10.667,3.736l-62.933,47.508c-14.578-7.474-27.911-12.99-40-16.55l-12.266-81.669
	c-0.356-3.559-2.134-6.672-5.335-9.34c-3.198-2.67-6.755-4.004-10.666-4.004h-99.201c-8.178,0-13.511,4.27-16,12.809
	c-4.267,16.371-8.355,43.771-12.266,82.203c-15.29,4.983-28.979,10.678-41.067,17.084L161.066,0.162
	c-3.555-2.491-7.288-3.736-11.2-3.736c-6.755,0-20.8,10.498-42.133,31.492C86.4,48.914,71.822,64.749,63.999,75.426
	c-2.488,2.847-3.733,6.406-3.733,10.676c0,3.203,1.245,6.763,3.733,10.677C83.91,120.62,99.91,141.081,112,158.163
	c-7.467,14.592-13.156,28.112-17.067,40.568l-82.667,12.812c-3.2,0.354-6.045,2.224-8.534,5.604S0,223.997,0,227.555v98.751
	c0,3.913,1.244,7.384,3.733,10.409s5.511,4.716,9.066,5.07l81.066,12.811c4.268,13.523,10.489,28.114,18.667,43.771
	c-5.688,7.828-14.044,18.683-25.066,32.562c-11.023,13.879-18.312,23.308-21.868,28.291c-2.489,3.558-3.733,6.938-3.733,10.141
	c0,9.609,25.601,38.078,76.8,85.407c3.555,2.848,7.289,4.271,11.199,4.271c4.623,0,8.178-1.245,10.667-3.737l62.934-47.506
	c14.578,7.473,27.911,12.988,40,16.547l12.267,81.67c0.355,3.559,2.132,6.672,5.333,9.342c3.2,2.668,6.756,4.003,10.667,4.003
	h99.201c8.177,0,13.512-4.271,16-12.811c4.267-16.726,8.355-44.304,12.267-82.737c14.222-4.27,27.911-9.785,41.066-16.547
	l61.332,48.041c3.557,2.491,7.29,3.736,11.201,3.736c6.756,0,20.711-10.586,41.867-31.76c21.154-21.174,35.822-37.098,43.999-47.773
	c2.49-2.492,3.734-5.873,3.734-10.144c0-3.558-1.244-7.116-3.734-10.675c-19.91-23.843-35.911-44.305-48-61.386
	c7.467-14.591,13.155-28.113,17.067-40.569l82.666-12.811c3.199-0.355,6.044-2.224,8.534-5.604c2.489-3.38,3.733-6.851,3.733-10.409
	v-98.75L682.669,229.157z M1024,513.665c0-5.693-26.488-11.209-79.466-16.547c-4.622-10.318-9.958-19.571-16-27.757
	c18.132-40.211,27.199-64.765,27.199-73.661c0-1.424-0.711-2.67-2.135-3.736c-42.665-24.911-64.71-37.367-66.132-37.367l-3.2,1.068
	c-14.578,14.591-30.934,34.518-49.067,59.785c-7.11-0.711-12.444-1.068-16.001-1.068c-3.554,0-8.887,0.357-16,1.068
	c-4.976-7.474-14.221-19.484-27.732-36.031c-13.511-16.547-21.688-24.82-24.533-24.82c-0.711,0-6.045,2.848-15.999,8.541
	c-9.956,5.693-20.445,11.743-31.467,18.148c-11.022,6.406-17.244,9.965-18.666,10.678c-1.424,1.066-2.134,2.313-2.134,3.736
	c0,8.896,9.065,33.45,27.199,73.661c-6.044,8.185-11.378,17.438-15.999,27.757c-52.979,5.338-79.468,10.854-79.468,16.548v74.729
	c0,5.694,26.488,11.21,79.468,16.549c4.266,9.607,9.599,18.858,15.999,27.756c-18.134,40.211-27.199,64.767-27.199,73.662
	c0,1.425,0.71,2.67,2.134,3.736C728.178,735.368,750.222,748,750.933,748c2.846,0,11.023-8.362,24.533-25.089
	c13.511-16.725,22.756-28.822,27.732-36.297c7.113,0.712,12.446,1.068,16,1.068c3.557,0,8.891-0.356,16.001-1.068
	c4.979,7.475,14.223,19.572,27.734,36.297C876.445,739.637,884.622,748,887.467,748c0.711,0,22.755-12.632,66.132-37.899
	c1.424-1.066,2.135-2.312,2.135-3.736c0-8.896-9.067-33.451-27.199-73.662c6.4-8.896,11.731-18.148,16-27.756
	c52.978-5.339,79.466-10.854,79.466-16.549v-74.729V513.665z M1024-32.933c0-5.694-26.488-11.209-79.466-16.548
	c-4.622-10.319-9.958-19.57-16-27.757c18.132-40.211,27.199-64.765,27.199-73.661c0-1.425-0.711-2.671-2.135-3.737
	C910.934-179.546,888.889-192,887.467-192l-3.2,1.066c-14.578,14.591-30.934,34.519-49.067,59.783
	c-7.11-0.71-12.444-1.065-16.001-1.065c-3.554,0-8.887,0.355-16,1.065c-4.976-7.472-14.221-19.481-27.732-36.029
	c-13.511-16.547-21.688-24.819-24.533-24.819c-0.711,0-6.045,2.847-15.999,8.54c-9.956,5.694-20.445,11.743-31.467,18.148
	c-11.022,6.406-17.244,9.965-18.666,10.677c-1.424,1.067-2.134,2.312-2.134,3.736c0,8.897,9.065,33.451,27.199,73.663
	c-6.044,8.186-11.378,17.438-15.999,27.757C640.888-44.14,614.4-38.624,614.4-32.93V41.8c0,5.693,26.488,11.209,79.468,16.547
	c4.266,9.607,9.599,18.86,15.999,27.757c-18.134,40.212-27.199,64.766-27.199,73.664c0,1.422,0.71,2.668,2.134,3.735
	c43.377,25.266,65.421,37.898,66.132,37.898c2.846,0,11.023-8.363,24.533-25.087c13.511-16.727,22.756-28.826,27.732-36.298
	c7.113,0.711,12.446,1.066,16,1.066c3.557,0,8.891-0.355,16.001-1.066c4.979,7.472,14.223,19.571,27.734,36.298
	c13.511,16.724,21.688,25.087,24.533,25.087c0.711,0,22.755-12.633,66.132-37.898c1.424-1.067,2.135-2.313,2.135-3.735
	c0-8.898-9.067-33.452-27.199-73.664c6.4-8.896,11.731-18.148,16-27.757C997.512,53.009,1024,47.493,1024,41.8V-32.93V-32.933z"/>
</svg>
