<?xml version="1.0" encoding="utf-8"?>
<!-- Generator: Adobe Illustrator 16.0.0, SVG Export Plug-In . SVG Version: 6.00 Build 0)  -->
<!DOCTYPE svg PUBLIC "-//W3C//DTD SVG 1.1//EN" "http://www.w3.org/Graphics/SVG/1.1/DTD/svg11.dtd">
<svg version="1.1" id="Layer_1" xmlns="http://www.w3.org/2000/svg" xmlns:xlink="http://www.w3.org/1999/xlink" x="0px" y="0px"
	 width="1024px" height="1024px" viewBox="0 0 1024 1024" enable-background="new 0 0 1024 1024" xml:space="preserve">
<path d="M805.07,457.142V347.428c0-15.238-5.333-28.19-16-38.857c-10.666-10.667-23.619-16-38.856-16H512.499V54.857
	c0-15.238-5.334-28.19-16-38.857C485.832,5.334,472.88,0,457.642,0H347.928c-15.238,0-28.19,5.334-38.857,16
	c-10.666,10.667-16,23.619-16,38.857v237.714H55.357c-15.237,0-28.19,5.333-38.856,16c-10.667,10.667-16,23.619-16,38.857v109.714
	c0,15.238,5.333,28.19,16,38.856c10.666,10.667,23.619,16,38.856,16h237.714v237.714c0,15.238,5.334,28.19,16,38.857
	c10.667,10.667,23.619,16,38.857,16h109.714c15.238,0,28.19-5.333,38.857-16c10.666-10.667,16-23.619,16-38.857V511.999h237.714
	c15.237,0,28.19-5.333,38.856-16C799.737,485.333,805.07,472.381,805.07,457.142z"/>
</svg>
